<mxfile host="app.diagrams.net" modified="2024-04-11T09:38:39.653Z" agent="Mozilla/5.0 (Macintosh; Intel Mac OS X 10_15_7) AppleWebKit/537.36 (KHTML, like Gecko) Chrome/123.0.0.0 Safari/537.36" version="24.2.1" etag="r0RbTqQ7EsAbevaax9wr" type="github">
  <diagram name="第 1 页" id="RoUJtp1ca_ix6E7DKOYr">
    <mxGraphModel>
      <root>
        <mxCell id="0" />
        <mxCell id="1" parent="0" />
      </root>
    </mxGraphModel>
  </diagram>
</mxfile>
